<mxfile host="app.diagrams.net" modified="2023-07-05T16:36:41.649Z" agent="Mozilla/5.0 (Macintosh; Intel Mac OS X 10_15_7) AppleWebKit/537.36 (KHTML, like Gecko) Chrome/114.0.0.0 Safari/537.36" etag="XSlzSuUJglZHTTzl8sTZ" version="21.5.2" type="github">
  <diagram name="페이지-1" id="dFPKH2xTRsoH1zjUMbul">
    <mxGraphModel dx="1303" dy="708" grid="1" gridSize="10" guides="1" tooltips="1" connect="1" arrows="1" fold="1" page="1" pageScale="1" pageWidth="827" pageHeight="1169" math="0" shadow="0">
      <root>
        <mxCell id="0" />
        <mxCell id="1" parent="0" />
        <mxCell id="MXV_r3sNd8mK_TKYUdvW-1" value="이용자" style="shape=umlActor;verticalLabelPosition=bottom;verticalAlign=top;html=1;" vertex="1" parent="1">
          <mxGeometry x="30" y="150" width="30" height="60" as="geometry" />
        </mxCell>
        <mxCell id="MXV_r3sNd8mK_TKYUdvW-2" value="게시판 서비스" style="shape=umlFrame;whiteSpace=wrap;html=1;pointerEvents=0;width=80;height=20;" vertex="1" parent="1">
          <mxGeometry x="109" y="10" width="610" height="580" as="geometry" />
        </mxCell>
        <mxCell id="MXV_r3sNd8mK_TKYUdvW-15" style="rounded=0;orthogonalLoop=1;jettySize=auto;html=1;exitX=0;exitY=0.5;exitDx=0;exitDy=0;entryX=1;entryY=0.3333333333333333;entryDx=0;entryDy=0;entryPerimeter=0;endArrow=none;endFill=0;" edge="1" parent="1" source="MXV_r3sNd8mK_TKYUdvW-4" target="MXV_r3sNd8mK_TKYUdvW-1">
          <mxGeometry relative="1" as="geometry" />
        </mxCell>
        <mxCell id="MXV_r3sNd8mK_TKYUdvW-4" value="회원 가입" style="rounded=1;whiteSpace=wrap;html=1;arcSize=40;fontColor=#000000;fillColor=#ffffc0;strokeColor=#ff0000;" vertex="1" parent="1">
          <mxGeometry x="140" y="130" width="120" height="40" as="geometry" />
        </mxCell>
        <mxCell id="MXV_r3sNd8mK_TKYUdvW-17" style="rounded=0;orthogonalLoop=1;jettySize=auto;html=1;entryX=1;entryY=0.3333333333333333;entryDx=0;entryDy=0;entryPerimeter=0;endArrow=none;endFill=0;" edge="1" parent="1" source="MXV_r3sNd8mK_TKYUdvW-6" target="MXV_r3sNd8mK_TKYUdvW-1">
          <mxGeometry relative="1" as="geometry" />
        </mxCell>
        <mxCell id="MXV_r3sNd8mK_TKYUdvW-21" value="" style="rounded=0;orthogonalLoop=1;jettySize=auto;html=1;entryX=0.5;entryY=1;entryDx=0;entryDy=0;dashed=1;" edge="1" parent="1" source="MXV_r3sNd8mK_TKYUdvW-6" target="MXV_r3sNd8mK_TKYUdvW-8">
          <mxGeometry relative="1" as="geometry" />
        </mxCell>
        <mxCell id="MXV_r3sNd8mK_TKYUdvW-6" value="게시판 보기" style="rounded=1;whiteSpace=wrap;html=1;arcSize=40;fontColor=#000000;fillColor=#ffffc0;strokeColor=#ff0000;" vertex="1" parent="1">
          <mxGeometry x="140" y="240" width="120" height="40" as="geometry" />
        </mxCell>
        <mxCell id="MXV_r3sNd8mK_TKYUdvW-18" style="rounded=0;orthogonalLoop=1;jettySize=auto;html=1;entryX=1;entryY=0.3333333333333333;entryDx=0;entryDy=0;entryPerimeter=0;endArrow=none;endFill=0;" edge="1" parent="1" source="MXV_r3sNd8mK_TKYUdvW-7" target="MXV_r3sNd8mK_TKYUdvW-1">
          <mxGeometry relative="1" as="geometry" />
        </mxCell>
        <mxCell id="MXV_r3sNd8mK_TKYUdvW-22" value="" style="rounded=0;orthogonalLoop=1;jettySize=auto;html=1;dashed=1;" edge="1" parent="1">
          <mxGeometry relative="1" as="geometry">
            <mxPoint x="220.00444444444435" y="400" as="sourcePoint" />
            <mxPoint x="371.11555555555566" y="80" as="targetPoint" />
          </mxGeometry>
        </mxCell>
        <mxCell id="MXV_r3sNd8mK_TKYUdvW-7" value="게시글 보기" style="rounded=1;whiteSpace=wrap;html=1;arcSize=40;fontColor=#000000;fillColor=#ffffc0;strokeColor=#ff0000;" vertex="1" parent="1">
          <mxGeometry x="140" y="400" width="120" height="40" as="geometry" />
        </mxCell>
        <mxCell id="MXV_r3sNd8mK_TKYUdvW-16" style="edgeStyle=orthogonalEdgeStyle;rounded=0;orthogonalLoop=1;jettySize=auto;html=1;endArrow=none;endFill=0;" edge="1" parent="1" source="MXV_r3sNd8mK_TKYUdvW-8">
          <mxGeometry relative="1" as="geometry">
            <mxPoint x="60" y="170" as="targetPoint" />
          </mxGeometry>
        </mxCell>
        <mxCell id="MXV_r3sNd8mK_TKYUdvW-19" value="&amp;lt;&amp;lt;include&amp;gt;&amp;gt;" style="edgeStyle=orthogonalEdgeStyle;rounded=0;orthogonalLoop=1;jettySize=auto;html=1;entryX=0;entryY=0.5;entryDx=0;entryDy=0;endArrow=classic;endFill=1;dashed=1;" edge="1" parent="1" source="MXV_r3sNd8mK_TKYUdvW-8" target="MXV_r3sNd8mK_TKYUdvW-9">
          <mxGeometry relative="1" as="geometry" />
        </mxCell>
        <mxCell id="MXV_r3sNd8mK_TKYUdvW-8" value="회원 로그인" style="rounded=1;whiteSpace=wrap;html=1;arcSize=40;fontColor=#000000;fillColor=#ffffc0;strokeColor=#ff0000;" vertex="1" parent="1">
          <mxGeometry x="310" y="40" width="120" height="40" as="geometry" />
        </mxCell>
        <mxCell id="MXV_r3sNd8mK_TKYUdvW-9" value="인증" style="rounded=1;whiteSpace=wrap;html=1;arcSize=40;fontColor=#000000;fillColor=#ffffc0;strokeColor=#ff0000;" vertex="1" parent="1">
          <mxGeometry x="550" y="40" width="120" height="40" as="geometry" />
        </mxCell>
        <mxCell id="MXV_r3sNd8mK_TKYUdvW-20" value="&amp;lt;&amp;lt;extend&amp;gt;&amp;gt;" style="rounded=0;orthogonalLoop=1;jettySize=auto;html=1;entryX=1;entryY=0.5;entryDx=0;entryDy=0;endArrow=classicThin;endFill=1;dashed=1;" edge="1" parent="1" source="MXV_r3sNd8mK_TKYUdvW-10" target="MXV_r3sNd8mK_TKYUdvW-8">
          <mxGeometry relative="1" as="geometry" />
        </mxCell>
        <mxCell id="MXV_r3sNd8mK_TKYUdvW-10" value="로그인 실패" style="rounded=1;whiteSpace=wrap;html=1;arcSize=40;fontColor=#000000;fillColor=#ffffc0;strokeColor=#ff0000;" vertex="1" parent="1">
          <mxGeometry x="550" y="130" width="120" height="40" as="geometry" />
        </mxCell>
        <mxCell id="MXV_r3sNd8mK_TKYUdvW-23" style="rounded=0;orthogonalLoop=1;jettySize=auto;html=1;dashed=1;" edge="1" parent="1" source="MXV_r3sNd8mK_TKYUdvW-11" target="MXV_r3sNd8mK_TKYUdvW-6">
          <mxGeometry relative="1" as="geometry" />
        </mxCell>
        <mxCell id="MXV_r3sNd8mK_TKYUdvW-11" value="게시판 정렬하기" style="rounded=1;whiteSpace=wrap;html=1;arcSize=40;fontColor=#000000;fillColor=#ffffc0;strokeColor=#ff0000;" vertex="1" parent="1">
          <mxGeometry x="400" y="210" width="120" height="40" as="geometry" />
        </mxCell>
        <mxCell id="MXV_r3sNd8mK_TKYUdvW-24" value="" style="rounded=0;orthogonalLoop=1;jettySize=auto;html=1;entryX=1;entryY=0.5;entryDx=0;entryDy=0;dashed=1;" edge="1" parent="1" source="MXV_r3sNd8mK_TKYUdvW-12" target="MXV_r3sNd8mK_TKYUdvW-6">
          <mxGeometry relative="1" as="geometry" />
        </mxCell>
        <mxCell id="MXV_r3sNd8mK_TKYUdvW-12" value="게시판 검색" style="rounded=1;whiteSpace=wrap;html=1;arcSize=40;fontColor=#000000;fillColor=#ffffc0;strokeColor=#ff0000;" vertex="1" parent="1">
          <mxGeometry x="400" y="300" width="120" height="40" as="geometry" />
        </mxCell>
        <mxCell id="MXV_r3sNd8mK_TKYUdvW-25" style="rounded=0;orthogonalLoop=1;jettySize=auto;html=1;dashed=1;" edge="1" parent="1" source="MXV_r3sNd8mK_TKYUdvW-13" target="MXV_r3sNd8mK_TKYUdvW-7">
          <mxGeometry relative="1" as="geometry" />
        </mxCell>
        <mxCell id="MXV_r3sNd8mK_TKYUdvW-13" value="게시글 쓰기, 수정, 삭제" style="rounded=1;whiteSpace=wrap;html=1;arcSize=40;fontColor=#000000;fillColor=#ffffc0;strokeColor=#ff0000;" vertex="1" parent="1">
          <mxGeometry x="400" y="390" width="120" height="40" as="geometry" />
        </mxCell>
        <mxCell id="MXV_r3sNd8mK_TKYUdvW-26" style="rounded=0;orthogonalLoop=1;jettySize=auto;html=1;entryX=1;entryY=0.75;entryDx=0;entryDy=0;dashed=1;" edge="1" parent="1" source="MXV_r3sNd8mK_TKYUdvW-14" target="MXV_r3sNd8mK_TKYUdvW-7">
          <mxGeometry relative="1" as="geometry" />
        </mxCell>
        <mxCell id="MXV_r3sNd8mK_TKYUdvW-14" value="댓글 보기, 쓰기, &lt;br&gt;수정, 삭제" style="rounded=1;whiteSpace=wrap;html=1;arcSize=40;fontColor=#000000;fillColor=#ffffc0;strokeColor=#ff0000;" vertex="1" parent="1">
          <mxGeometry x="400" y="470" width="120" height="40" as="geometry" />
        </mxCell>
      </root>
    </mxGraphModel>
  </diagram>
</mxfile>
